# xmcd
#
# Track frame offsets: 
#        150
#        19576
#        38981
#        56042
#        80538
#        100932
#        123391
#        140662
#        156116
#        178650
#        197920
#        219295
#        235724
#        260636
#        287220
#        307611
#
# Disc length: 4367 seconds
#
# Revision: 0
# Processed by: cddbd v1.5.2PL0 Copyright (c) Steve Scherf et al.
# Submitted via: ExactAudioCopyFreeDBPlugin 1.0
#
DISCID=df110d10
DTITLE=群星 - 发烧老情歌(男人篇)CD3
DYEAR=2008
DGENRE=Acid
TTITLE0=再回到从前（张恒）
TTITLE1=童年（刘亮鹭）
TTITLE2=梅花三弄（邓杰）
TTITLE3=牵手（刘亮鹭）
TTITLE4=味道（江智民）
TTITLE5=让我欢喜让我忧（包伍）
TTITLE6=来生缘（丁咚）
TTITLE7=上海滩（江智民）
TTITLE8=我曾用心的爱着你（刘亮鹭）
TTITLE9=我是不是你最疼爱的人（肖超）
TTITLE10=有多少爱可以重来（雨天）
TTITLE11=愿赌服输（张恒）
TTITLE12=风中的承诺（江智民）
TTITLE13=特别的爱给特别的你（肖超）
TTITLE14=爱上一个不回家的人（刘亮鹭）
TTITLE15=伤心的话留到明天再说（雨天）
EXTD=
EXTT0=
EXTT1=
EXTT2=
EXTT3=
EXTT4=
EXTT5=
EXTT6=
EXTT7=
EXTT8=
EXTT9=
EXTT10=
EXTT11=
EXTT12=
EXTT13=
EXTT14=
EXTT15=
PLAYORDER=
